<svg width="111" height="265" viewBox="0 0 111 265" fill="none" xmlns="http://www.w3.org/2000/svg">
<g clip-path="url(#clip0_1_3991)">
<path fill-rule="evenodd" clip-rule="evenodd" d="M0.754883 264.776H94.6545V17.5H0.754883V264.776ZM1.75488 263.776V18.5H93.6545V263.776H1.75488Z" fill="#464754"/>
<path fill-rule="evenodd" clip-rule="evenodd" d="M5.3466 140.638H4.04895V141.638H5.3466V140.638ZM10.5372 140.638H7.9419V141.638H10.5372V140.638ZM15.7278 140.638H13.1325V141.638H15.7278V140.638ZM20.9184 140.638H18.3231V141.638H20.9184V140.638ZM26.109 140.638H23.5137V141.638H26.109V140.638ZM31.2996 140.638H28.7043V141.638H31.2996V140.638ZM36.4903 140.638H33.8949V141.638H36.4903V140.638ZM41.6809 140.638H39.0856V141.638H41.6809V140.638ZM46.8715 140.638H44.2762V141.638H46.8715V140.638ZM52.0621 140.638H49.4668V141.638H52.0621V140.638ZM57.2527 140.638H54.6574V141.638H57.2527V140.638ZM62.4433 140.638H59.848V141.638H62.4433V140.638ZM67.6339 140.638H65.0386V141.638H67.6339V140.638ZM72.8245 140.638H70.2292V141.638H72.8245V140.638ZM78.0151 140.638H75.4198V141.638H78.0151V140.638ZM83.2057 140.638H80.6104V141.638H83.2057V140.638ZM88.3963 140.638H85.801V141.638H88.3963V140.638ZM92.2892 140.638H90.9916V141.638H92.2892V140.638Z" fill="#464754"/>
<path fill-rule="evenodd" clip-rule="evenodd" d="M2.62105 35.598H1.25488V36.598H2.62105V35.598ZM8.08573 35.598H5.35339V36.598H8.08573V35.598ZM13.5504 35.598H10.8181V36.598H13.5504V35.598ZM19.0151 35.598H16.2828V36.598H19.0151V35.598ZM24.4798 35.598H21.7474V36.598H24.4798V35.598ZM29.9445 35.598H27.2121V36.598H29.9445V35.598ZM35.4091 35.598H32.6768V36.598H35.4091V35.598ZM40.8738 35.598H38.1415V36.598H40.8738V35.598ZM46.3385 35.598H43.6062V36.598H46.3385V35.598ZM51.8032 35.598H49.0709V36.598H51.8032V35.598ZM57.2679 35.598H54.5355V36.598H57.2679V35.598ZM62.7326 35.598H60.0002V36.598H62.7326V35.598ZM68.1972 35.598H65.4649V36.598H68.1972V35.598ZM73.6619 35.598H70.9296V36.598H73.6619V35.598ZM79.1266 35.598H76.3943V36.598H79.1266V35.598ZM84.5913 35.598H81.8589V36.598H84.5913V35.598ZM90.0559 35.598H87.3236V36.598H90.0559V35.598ZM94.1545 35.598H92.7883V36.598H94.1545V35.598Z" fill="#464754"/>
<path fill-rule="evenodd" clip-rule="evenodd" d="M2.62105 246.119H1.25488V247.119H2.62105V246.119ZM8.08573 246.119H5.35339V247.119H8.08573V246.119ZM13.5504 246.119H10.8181V247.119H13.5504V246.119ZM19.0151 246.119H16.2828V247.119H19.0151V246.119ZM24.4798 246.119H21.7474V247.119H24.4798V246.119ZM29.9445 246.119H27.2121V247.119H29.9445V246.119ZM35.4091 246.119H32.6768V247.119H35.4091V246.119ZM40.8738 246.119H38.1415V247.119H40.8738V246.119ZM46.3385 246.119H43.6062V247.119H46.3385V246.119ZM51.8032 246.119H49.0709V247.119H51.8032V246.119ZM57.2679 246.119H54.5355V247.119H57.2679V246.119ZM62.7326 246.119H60.0002V247.119H62.7326V246.119ZM68.1972 246.119H65.4649V247.119H68.1972V246.119ZM73.6619 246.119H70.9296V247.119H73.6619V246.119ZM79.1266 246.119H76.3943V247.119H79.1266V246.119ZM84.5913 246.119H81.8589V247.119H84.5913V246.119ZM90.0559 246.119H87.3236V247.119H90.0559V246.119ZM94.1545 246.119H92.7883V247.119H94.1545V246.119Z" fill="#464754"/>
<path fill-rule="evenodd" clip-rule="evenodd" d="M88.2612 3.72419L5.50598 3.72418V4.84615L88.2612 4.84616V3.72419Z" fill="#464754" fill-opacity="0.7"/>
<path d="M0.765747 4.2847C2.99622 5.11271 5.763 6.52416 7.47849 8.01975L6.12763 4.2847L7.4785 0.550781C5.763 2.04637 2.99622 3.45781 0.765747 4.2847Z" fill="#464754" fill-opacity="0.7"/>
<path d="M93.0001 4.2847C90.7696 5.11271 88.0029 6.52416 86.2874 8.01975L87.6382 4.2847L86.2874 0.550781C88.0029 2.04636 90.7696 3.45781 93.0001 4.2847Z" fill="#464754" fill-opacity="0.7"/>
<path fill-rule="evenodd" clip-rule="evenodd" d="M108.276 22.7388V259.494H107.154V22.7388H108.276Z" fill="#464754" fill-opacity="0.7"/>
<path d="M107.715 264.234C106.887 262.004 105.476 259.237 103.98 257.521L107.715 258.872L111.449 257.521C109.954 259.237 108.542 262.004 107.715 264.234Z" fill="#464754" fill-opacity="0.7"/>
<path d="M107.715 18C106.887 20.2305 105.476 22.9973 103.98 24.7128L107.715 23.3619L111.449 24.7128C109.954 22.9973 108.542 20.2305 107.715 18Z" fill="#464754" fill-opacity="0.7"/>
</g>
<defs>
<clipPath id="clip0_1_3991">
<rect width="111" height="265" fill="white"/>
</clipPath>
</defs>
</svg>
